<svg width="145" height="27" viewBox="0 0 145 27" fill="none" xmlns="http://www.w3.org/2000/svg">
<path d="M7.5 24.5L1 17.5L7.5 15L12 20L17.5 15L12 7.5V12.5L1 10L5.5 4.5" stroke="white" stroke-width="2" stroke-linecap="round" stroke-linejoin="round"/>
<path d="M34.316 5.6C36.3107 5.6 37.88 6.07667 39.024 7.03C40.168 7.98333 40.74 9.296 40.74 10.968C40.74 12.64 40.168 13.9527 39.024 14.906C37.88 15.8593 36.3107 16.336 34.316 16.336H30.51V21H28.31V5.6H34.316ZM34.25 14.422C35.6433 14.422 36.7067 14.1287 37.44 13.542C38.1733 12.9407 38.54 12.0827 38.54 10.968C38.54 9.85333 38.1733 9.00267 37.44 8.416C36.7067 7.81467 35.6433 7.514 34.25 7.514H30.51V14.422H34.25ZM48.6151 21.132C47.4565 21.132 46.4151 20.8753 45.4911 20.362C44.5671 19.8487 43.8411 19.1447 43.3131 18.25C42.7998 17.3407 42.5431 16.314 42.5431 15.17C42.5431 14.026 42.7998 13.0067 43.3131 12.112C43.8411 11.2027 44.5671 10.4987 45.4911 10C46.4151 9.48667 47.4565 9.23 48.6151 9.23C49.7738 9.23 50.8078 9.48667 51.7171 10C52.6411 10.4987 53.3598 11.2027 53.8731 12.112C54.4011 13.0067 54.6651 14.026 54.6651 15.17C54.6651 16.314 54.4011 17.3407 53.8731 18.25C53.3598 19.1447 52.6411 19.8487 51.7171 20.362C50.8078 20.8753 49.7738 21.132 48.6151 21.132ZM48.6151 19.284C49.3631 19.284 50.0305 19.1153 50.6171 18.778C51.2185 18.426 51.6878 17.942 52.0251 17.326C52.3625 16.6953 52.5311 15.9767 52.5311 15.17C52.5311 14.3633 52.3625 13.652 52.0251 13.036C51.6878 12.4053 51.2185 11.9213 50.6171 11.584C50.0305 11.2467 49.3631 11.078 48.6151 11.078C47.8671 11.078 47.1925 11.2467 46.5911 11.584C46.0045 11.9213 45.5351 12.4053 45.1831 13.036C44.8458 13.652 44.6771 14.3633 44.6771 15.17C44.6771 15.9767 44.8458 16.6953 45.1831 17.326C45.5351 17.942 46.0045 18.426 46.5911 18.778C47.1925 19.1153 47.8671 19.284 48.6151 19.284ZM57.586 4.676H59.698V21H57.586V4.676ZM68.7245 21.132C67.5658 21.132 66.5245 20.8753 65.6005 20.362C64.6765 19.8487 63.9505 19.1447 63.4225 18.25C62.9092 17.3407 62.6525 16.314 62.6525 15.17C62.6525 14.026 62.9092 13.0067 63.4225 12.112C63.9505 11.2027 64.6765 10.4987 65.6005 10C66.5245 9.48667 67.5658 9.23 68.7245 9.23C69.8832 9.23 70.9172 9.48667 71.8265 10C72.7505 10.4987 73.4692 11.2027 73.9825 12.112C74.5105 13.0067 74.7745 14.026 74.7745 15.17C74.7745 16.314 74.5105 17.3407 73.9825 18.25C73.4692 19.1447 72.7505 19.8487 71.8265 20.362C70.9172 20.8753 69.8832 21.132 68.7245 21.132ZM68.7245 19.284C69.4725 19.284 70.1398 19.1153 70.7265 18.778C71.3278 18.426 71.7972 17.942 72.1345 17.326C72.4718 16.6953 72.6405 15.9767 72.6405 15.17C72.6405 14.3633 72.4718 13.652 72.1345 13.036C71.7972 12.4053 71.3278 11.9213 70.7265 11.584C70.1398 11.2467 69.4725 11.078 68.7245 11.078C67.9765 11.078 67.3018 11.2467 66.7005 11.584C66.1138 11.9213 65.6445 12.4053 65.2925 13.036C64.9552 13.652 64.7865 14.3633 64.7865 15.17C64.7865 15.9767 64.9552 16.6953 65.2925 17.326C65.6445 17.942 66.1138 18.426 66.7005 18.778C67.3018 19.1153 67.9765 19.284 68.7245 19.284ZM82.7774 21.132C81.5894 21.132 80.526 20.8753 79.5874 20.362C78.6634 19.8487 77.9374 19.1447 77.4094 18.25C76.8814 17.3407 76.6174 16.314 76.6174 15.17C76.6174 14.026 76.8814 13.0067 77.4094 12.112C77.9374 11.2027 78.6634 10.4987 79.5874 10C80.526 9.48667 81.5894 9.23 82.7774 9.23C83.8334 9.23 84.772 9.44267 85.5934 9.868C86.4294 10.2933 87.0747 10.9093 87.5294 11.716L85.9234 12.75C85.5567 12.1927 85.102 11.7747 84.5594 11.496C84.0167 11.2173 83.4154 11.078 82.7554 11.078C81.9927 11.078 81.3034 11.2467 80.6874 11.584C80.086 11.9213 79.6094 12.4053 79.2574 13.036C78.92 13.652 78.7514 14.3633 78.7514 15.17C78.7514 15.9913 78.92 16.7173 79.2574 17.348C79.6094 17.964 80.086 18.4407 80.6874 18.778C81.3034 19.1153 81.9927 19.284 82.7554 19.284C83.4154 19.284 84.0167 19.1447 84.5594 18.866C85.102 18.5873 85.5567 18.1693 85.9234 17.612L87.5294 18.624C87.0747 19.4307 86.4294 20.054 85.5934 20.494C84.772 20.9193 83.8334 21.132 82.7774 21.132ZM94.6453 15.566L92.2253 17.81V21H90.1133V4.676H92.2253V15.148L98.5833 9.34H101.135L96.2293 14.158L101.619 21H99.0233L94.6453 15.566ZM110.864 21.176C109.324 21.176 107.931 20.8387 106.684 20.164C105.452 19.4747 104.484 18.536 103.78 17.348C103.076 16.1453 102.724 14.796 102.724 13.3C102.724 11.804 103.076 10.462 103.78 9.274C104.484 8.07133 105.459 7.13267 106.706 6.458C107.953 5.76867 109.346 5.424 110.886 5.424C112.089 5.424 113.189 5.62933 114.186 6.04C115.183 6.436 116.034 7.03 116.738 7.822L115.308 9.208C114.149 7.99067 112.705 7.382 110.974 7.382C109.83 7.382 108.796 7.63867 107.872 8.152C106.948 8.66533 106.222 9.37667 105.694 10.286C105.181 11.1807 104.924 12.1853 104.924 13.3C104.924 14.4147 105.181 15.4267 105.694 16.336C106.222 17.2307 106.948 17.9347 107.872 18.448C108.796 18.9613 109.83 19.218 110.974 19.218C112.69 19.218 114.135 18.602 115.308 17.37L116.738 18.756C116.034 19.548 115.176 20.1493 114.164 20.56C113.167 20.9707 112.067 21.176 110.864 21.176ZM119.568 9.34H121.68V21H119.568V9.34ZM120.624 7.096C120.214 7.096 119.869 6.964 119.59 6.7C119.326 6.436 119.194 6.11333 119.194 5.732C119.194 5.35067 119.326 5.028 119.59 4.764C119.869 4.48533 120.214 4.346 120.624 4.346C121.035 4.346 121.372 4.478 121.636 4.742C121.915 4.99133 122.054 5.30667 122.054 5.688C122.054 6.084 121.915 6.42133 121.636 6.7C121.372 6.964 121.035 7.096 120.624 7.096ZM132.269 20.318C131.961 20.582 131.58 20.7873 131.125 20.934C130.67 21.066 130.201 21.132 129.717 21.132C128.544 21.132 127.634 20.8167 126.989 20.186C126.344 19.5553 126.021 18.6533 126.021 17.48V11.078H124.041V9.34H126.021V6.788H128.133V9.34H131.477V11.078H128.133V17.392C128.133 18.0227 128.287 18.5067 128.595 18.844C128.918 19.1813 129.372 19.35 129.959 19.35C130.604 19.35 131.154 19.1667 131.609 18.8L132.269 20.318ZM144.925 9.34L139.271 22.166C138.773 23.354 138.186 24.19 137.511 24.674C136.851 25.158 136.052 25.4 135.113 25.4C134.541 25.4 133.984 25.3047 133.441 25.114C132.913 24.938 132.473 24.674 132.121 24.322L133.023 22.738C133.625 23.31 134.321 23.596 135.113 23.596C135.627 23.596 136.052 23.4567 136.389 23.178C136.741 22.914 137.057 22.452 137.335 21.792L137.709 20.978L132.561 9.34H134.761L138.831 18.668L142.857 9.34H144.925Z" fill="white"/>
</svg>
